<svg width="33" height="34" viewBox="0 0 33 34" fill="none" xmlns="http://www.w3.org/2000/svg">
<g clip-path="url(#clip0_4_42974)">
<path fill-rule="evenodd" clip-rule="evenodd" d="M21.3125 2.75003C21.0416 2.75003 20.7734 2.80338 20.5232 2.90703C20.273 3.01068 20.0456 3.1626 19.8541 3.35412C19.6626 3.54564 19.5106 3.77301 19.407 4.02324C19.3033 4.27348 19.25 4.54168 19.25 4.81253C19.25 5.08338 19.3033 5.35158 19.407 5.60181C19.5106 5.85205 19.6626 6.07941 19.8541 6.27094C20.0456 6.46246 20.273 6.61438 20.5232 6.71803C20.7734 6.82168 21.0416 6.87503 21.3125 6.87503C21.8595 6.87503 22.3841 6.65773 22.7709 6.27094C23.1577 5.88414 23.375 5.35954 23.375 4.81253C23.375 4.26552 23.1577 3.74091 22.7709 3.35412C22.3841 2.96733 21.8595 2.75003 21.3125 2.75003ZM17.9438 4.12503C18.1015 3.34795 18.5231 2.64933 19.1371 2.14752C19.751 1.64571 20.5196 1.37158 21.3125 1.37158C22.1054 1.37158 22.874 1.64571 23.4879 2.14752C24.1019 2.64933 24.5235 3.34795 24.6812 4.12503H27.5V5.50003H24.6812C24.5235 6.2771 24.1019 6.97573 23.4879 7.47754C22.874 7.97935 22.1054 8.25347 21.3125 8.25347C20.5196 8.25347 19.751 7.97935 19.1371 7.47754C18.5231 6.97573 18.1015 6.2771 17.9438 5.50003H5.5V4.12503H17.9438ZM11.6875 9.62503C11.1405 9.62503 10.6159 9.84233 10.2291 10.2291C9.8423 10.6159 9.625 11.1405 9.625 11.6875C9.625 12.2345 9.8423 12.7591 10.2291 13.1459C10.6159 13.5327 11.1405 13.75 11.6875 13.75C12.2345 13.75 12.7591 13.5327 13.1459 13.1459C13.5327 12.7591 13.75 12.2345 13.75 11.6875C13.75 11.1405 13.5327 10.6159 13.1459 10.2291C12.7591 9.84233 12.2345 9.62503 11.6875 9.62503ZM8.31875 11C8.47654 10.223 8.89813 9.52433 9.51207 9.02252C10.126 8.52071 10.8946 8.24658 11.6875 8.24658C12.4804 8.24658 13.249 8.52071 13.8629 9.02252C14.4769 9.52433 14.8985 10.223 15.0562 11H27.5V12.375H15.0562C14.8985 13.1521 14.4769 13.8507 13.8629 14.3525C13.249 14.8543 12.4804 15.1285 11.6875 15.1285C10.8946 15.1285 10.126 14.8543 9.51207 14.3525C8.89813 13.8507 8.47654 13.1521 8.31875 12.375H5.5V11H8.31875ZM21.3125 16.5C20.7655 16.5 20.2409 16.7173 19.8541 17.1041C19.4673 17.4909 19.25 18.0155 19.25 18.5625C19.25 19.1095 19.4673 19.6341 19.8541 20.0209C20.2409 20.4077 20.7655 20.625 21.3125 20.625C21.8595 20.625 22.3841 20.4077 22.7709 20.0209C23.1577 19.6341 23.375 19.1095 23.375 18.5625C23.375 18.0155 23.1577 17.4909 22.7709 17.1041C22.3841 16.7173 21.8595 16.5 21.3125 16.5ZM17.9438 17.875C18.1015 17.098 18.5231 16.3993 19.1371 15.8975C19.751 15.3957 20.5196 15.1216 21.3125 15.1216C22.1054 15.1216 22.874 15.3957 23.4879 15.8975C24.1019 16.3993 24.5235 17.098 24.6812 17.875H27.5V19.25H24.6812C24.5235 20.0271 24.1019 20.7257 23.4879 21.2275C22.874 21.7293 22.1054 22.0035 21.3125 22.0035C20.5196 22.0035 19.751 21.7293 19.1371 21.2275C18.5231 20.7257 18.1015 20.0271 17.9438 19.25H5.5V17.875H17.9438Z" fill="white"/>
</g>
<path d="M1.32102 31H0.196023L2.24432 25.1818H3.54545L5.59659 31H4.47159L2.91761 26.375H2.87216L1.32102 31ZM1.35795 28.7188H4.42614V29.5653H1.35795V28.7188ZM8.08807 31.0852C7.65246 31.0852 7.27841 30.9896 6.96591 30.7983C6.6553 30.607 6.41572 30.3428 6.24716 30.0057C6.08049 29.6667 5.99716 29.2765 5.99716 28.8352C5.99716 28.392 6.08239 28.0009 6.25284 27.6619C6.4233 27.321 6.66383 27.0559 6.97443 26.8665C7.28693 26.6752 7.65625 26.5795 8.08239 26.5795C8.43655 26.5795 8.75 26.6449 9.02273 26.7756C9.29735 26.9044 9.5161 27.0871 9.67898 27.3239C9.84186 27.5587 9.93466 27.8333 9.95739 28.1477H8.97443C8.93466 27.9375 8.83996 27.7623 8.69034 27.6222C8.54261 27.4801 8.3447 27.4091 8.09659 27.4091C7.88636 27.4091 7.7017 27.4659 7.54261 27.5795C7.38352 27.6913 7.25947 27.8523 7.17045 28.0625C7.08333 28.2727 7.03977 28.5246 7.03977 28.8182C7.03977 29.1155 7.08333 29.3712 7.17045 29.5852C7.25758 29.7973 7.37973 29.9612 7.53693 30.0767C7.69602 30.1903 7.88258 30.2472 8.09659 30.2472C8.24811 30.2472 8.38352 30.2187 8.50284 30.1619C8.62405 30.1032 8.72538 30.0189 8.80682 29.9091C8.88826 29.7992 8.94413 29.6657 8.97443 29.5085H9.95739C9.93277 29.8172 9.84186 30.0909 9.68466 30.3295C9.52746 30.5663 9.31345 30.7519 9.04261 30.8864C8.77178 31.0189 8.4536 31.0852 8.08807 31.0852ZM12.7053 31.0852C12.2696 31.0852 11.8956 30.9896 11.5831 30.7983C11.2725 30.607 11.0329 30.3428 10.8643 30.0057C10.6977 29.6667 10.6143 29.2765 10.6143 28.8352C10.6143 28.392 10.6996 28.0009 10.87 27.6619C11.0405 27.321 11.281 27.0559 11.5916 26.8665C11.9041 26.6752 12.2734 26.5795 12.6996 26.5795C13.0537 26.5795 13.3672 26.6449 13.6399 26.7756C13.9145 26.9044 14.1333 27.0871 14.2962 27.3239C14.459 27.5587 14.5518 27.8333 14.5746 28.1477H13.5916C13.5518 27.9375 13.4571 27.7623 13.3075 27.6222C13.1598 27.4801 12.9619 27.4091 12.7138 27.4091C12.5036 27.4091 12.3189 27.4659 12.1598 27.5795C12.0007 27.6913 11.8767 27.8523 11.7876 28.0625C11.7005 28.2727 11.657 28.5246 11.657 28.8182C11.657 29.1155 11.7005 29.3712 11.7876 29.5852C11.8748 29.7973 11.9969 29.9612 12.1541 30.0767C12.3132 30.1903 12.4998 30.2472 12.7138 30.2472C12.8653 30.2472 13.0007 30.2187 13.12 30.1619C13.2412 30.1032 13.3426 30.0189 13.424 29.9091C13.5054 29.7992 13.5613 29.6657 13.5916 29.5085H14.5746C14.55 29.8172 14.459 30.0909 14.3018 30.3295C14.1446 30.5663 13.9306 30.7519 13.6598 30.8864C13.389 31.0189 13.0708 31.0852 12.7053 31.0852ZM17.3224 31.0852C16.8963 31.0852 16.527 30.9915 16.2145 30.804C15.902 30.6165 15.6596 30.3542 15.4872 30.017C15.3168 29.6799 15.2315 29.286 15.2315 28.8352C15.2315 28.3845 15.3168 27.9896 15.4872 27.6506C15.6596 27.3116 15.902 27.0483 16.2145 26.8608C16.527 26.6733 16.8963 26.5795 17.3224 26.5795C17.7486 26.5795 18.1179 26.6733 18.4304 26.8608C18.7429 27.0483 18.9844 27.3116 19.1548 27.6506C19.3272 27.9896 19.4134 28.3845 19.4134 28.8352C19.4134 29.286 19.3272 29.6799 19.1548 30.017C18.9844 30.3542 18.7429 30.6165 18.4304 30.804C18.1179 30.9915 17.7486 31.0852 17.3224 31.0852ZM17.3281 30.2614C17.5592 30.2614 17.7524 30.1979 17.9077 30.071C18.063 29.9422 18.1785 29.7699 18.2543 29.554C18.3319 29.3381 18.3707 29.0975 18.3707 28.8324C18.3707 28.5653 18.3319 28.3239 18.2543 28.108C18.1785 27.8902 18.063 27.7169 17.9077 27.5881C17.7524 27.4593 17.5592 27.3949 17.3281 27.3949C17.0914 27.3949 16.8944 27.4593 16.7372 27.5881C16.5819 27.7169 16.4654 27.8902 16.3878 28.108C16.312 28.3239 16.2741 28.5653 16.2741 28.8324C16.2741 29.0975 16.312 29.3381 16.3878 29.554C16.4654 29.7699 16.5819 29.9422 16.7372 30.071C16.8944 30.1979 17.0914 30.2614 17.3281 30.2614ZM23.0675 29.1648V26.6364H24.0959V31H23.0987V30.2244H23.0533C22.9548 30.4687 22.7929 30.6686 22.5675 30.8239C22.344 30.9792 22.0684 31.0568 21.7408 31.0568C21.4548 31.0568 21.2019 30.9934 20.9822 30.8665C20.7644 30.7377 20.594 30.5511 20.4709 30.3068C20.3478 30.0606 20.2862 29.7633 20.2862 29.4148V26.6364H21.3146V29.2557C21.3146 29.5322 21.3904 29.7519 21.5419 29.9148C21.6934 30.0777 21.8923 30.1591 22.1385 30.1591C22.29 30.1591 22.4368 30.1222 22.5788 30.0483C22.7209 29.9744 22.8374 29.8646 22.9283 29.7188C23.0211 29.571 23.0675 29.3864 23.0675 29.1648ZM26.1818 28.4432V31H25.1534V26.6364H26.1364V27.3778H26.1875C26.2879 27.1335 26.4479 26.9394 26.6676 26.7955C26.8892 26.6515 27.1629 26.5795 27.4886 26.5795C27.7898 26.5795 28.0521 26.6439 28.2756 26.7727C28.5009 26.9015 28.6752 27.0881 28.7983 27.3324C28.9233 27.5767 28.9848 27.8731 28.983 28.2216V31H27.9545V28.3807C27.9545 28.089 27.8788 27.8608 27.7273 27.696C27.5777 27.5312 27.3703 27.4489 27.1051 27.4489C26.9252 27.4489 26.7652 27.4886 26.625 27.5682C26.4867 27.6458 26.3778 27.7585 26.2983 27.9062C26.2206 28.054 26.1818 28.233 26.1818 28.4432ZM32.2074 26.6364V27.4318H29.6989V26.6364H32.2074ZM30.3182 25.5909H31.3466V29.6875C31.3466 29.8258 31.3674 29.9318 31.4091 30.0057C31.4527 30.0777 31.5095 30.1269 31.5795 30.1534C31.6496 30.1799 31.7273 30.1932 31.8125 30.1932C31.8769 30.1932 31.9356 30.1884 31.9886 30.179C32.0436 30.1695 32.0852 30.161 32.1136 30.1534L32.2869 30.9574C32.232 30.9763 32.1534 30.9972 32.0511 31.0199C31.9508 31.0426 31.8277 31.0559 31.6818 31.0597C31.4242 31.0672 31.1922 31.0284 30.9858 30.9432C30.7794 30.8561 30.6155 30.7216 30.4943 30.5398C30.375 30.358 30.3163 30.1307 30.3182 29.858V25.5909Z" fill="white"/>
<defs>
<clipPath id="clip0_4_42974">
<rect width="22" height="22" fill="white" transform="translate(5.5)"/>
</clipPath>
</defs>
</svg>
